<svg xmlns="http://www.w3.org/2000/svg" xml:space="preserve" style="fill-rule:evenodd;clip-rule:evenodd;stroke-linejoin:round;stroke-miterlimit:2" viewBox="0 0 308 56"><path d="M15.037.825q10.457 0 15.246 4.225 4.79 4.224 4.789 11.813a19.4 19.4 0 0 1-1.076 6.448q-1.077 3.082-3.541 5.515t-6.545 3.831q-4.081 1.4-10.036 1.399H8.1v20.319H0V.825zm-.6 6.816H8.1v19.6h4.912q4.548 0 7.612-1.01 3.066-1.01 4.605-3.233t1.54-5.814q0-4.82-2.968-7.181-2.968-2.362-9.364-2.362M88.718 27.075q0 9-3.371 15.075t-9.695 9.15q-6.325 3.075-15.286 3.075H45.375V.825h16.588q8.189 0 14.191 3t9.283 8.812q3.28 5.813 3.281 14.438m-8.497.247q0-6.771-2.175-11.124t-6.38-6.456Q67.46 7.641 61.453 7.641h-7.978v39.897h6.566q10.122 0 15.151-5.086 5.03-5.085 5.029-15.13M108.18 54.375h-8.055V.825h30.146v6.921H108.18v17.448h20.689v6.921H108.18zM160.955 27.112h19.462v24.9a42.6 42.6 0 0 1-8.344 2.344q-4.368.77-9.393.769-8.475 0-14.288-3.263-5.812-3.262-8.812-9.412t-3-14.775q0-8.175 3.281-14.381 3.281-6.207 9.412-9.75T163.992 0q4.387 0 8.325.806a33.8 33.8 0 0 1 7.425 2.419l-1.725 3.862a33.2 33.2 0 0 0-6.937-2.381 33.4 33.4 0 0 0-7.313-.806q-7.05 0-12.15 3t-7.8 8.344-2.7 12.393q0 7.726 2.55 12.994 2.55 5.27 7.538 7.95 4.987 2.682 12.337 2.681 3.937 0 6.994-.543 3.056-.544 5.531-1.407V31.05h-15.112zM227.555 54.375l-7.125-18.45h-22.238l-7.2 18.45h-4.462L207.567.637h3.975l20.55 53.738zm-15.638-41.663q-.262-.75-.712-2.025t-.9-2.718q-.45-1.444-.863-2.569a152 152 0 0 1-.787 2.662q-.413 1.35-.844 2.532-.432 1.18-.769 2.156l-7.387 19.237h19.387zM251.255 54.375h-4.35V4.725h-17.25v-3.9h38.85v3.9h-17.25zM307.805 54.375h-29.4V.825h29.4v3.9h-25.05v19.612h23.625V28.2h-23.625v22.275h25.05z" style="fill:#fff;fill-rule:nonzero"/><text x="224.467" y="129.601" style="font-family:&quot;Avenir-Book&quot;,&quot;Avenir&quot;;font-size:57.864px;fill:#06de96" transform="matrix(1 0 0 .89041 0 -93.16)">.</text></svg>
